<mxfile host="app.diagrams.net" modified="2023-10-13T14:51:50.377Z" agent="Mozilla/5.0 (Windows NT 10.0; Win64; x64) AppleWebKit/537.36 (KHTML, like Gecko) Chrome/118.0.0.0 Safari/537.36" version="22.0.4" etag="7trtTLSu2K3VVz4SAZw6" type="github">
  <diagram name="第 1 页" id="TobLSfmvK75UelQ_1YZj">
    <mxGraphModel>
      <root>
        <mxCell id="0" />
        <mxCell id="1" parent="0" />
      </root>
    </mxGraphModel>
  </diagram>
</mxfile>
